<?xml version="1.0" standalone="no"?><!DOCTYPE svg PUBLIC "-//W3C//DTD SVG 1.1//EN" "http://www.w3.org/Graphics/SVG/1.1/DTD/svg11.dtd"><svg height="1024" node-id="1" sillyvg="true" template-height="1024" template-width="1024" version="1.1" viewBox="0 0 1024 1024" width="1024" xmlns="http://www.w3.org/2000/svg" xmlns:xlink="http://www.w3.org/1999/xlink"><defs node-id="72"><linearGradient gradientUnits="objectBoundingBox" id="paint0_linear_1513_110780" node-id="30" spreadMethod="pad" x1="506" x2="506" y1="635" y2="890"><stop offset="0" stop-color="#bddfff"></stop><stop offset="0.95892" stop-color="#ffffff" stop-opacity="0"></stop></linearGradient><linearGradient gradientUnits="objectBoundingBox" id="paint1_linear_1513_110780" node-id="33" spreadMethod="pad" x1="229.66" x2="229.66" y1="754.678" y2="615.257"><stop offset="0" stop-color="#5fb2ff"></stop><stop offset="0.7893" stop-color="#dff0ff"></stop></linearGradient><linearGradient gradientUnits="objectBoundingBox" id="paint2_linear_1513_110780" node-id="36" spreadMethod="pad" x1="229.661" x2="229.661" y1="630.738" y2="784.347"><stop offset="0" stop-color="#dff0ff"></stop><stop offset="0.818" stop-color="#a2d2ff"></stop></linearGradient><linearGradient gradientUnits="objectBoundingBox" id="paint3_linear_1513_110780" node-id="39" spreadMethod="pad" x1="883.842" x2="847.534" y1="720.042" y2="802.968"><stop offset="0.365159" stop-color="#c4e3ff"></stop><stop offset="1" stop-color="#5fb2ff"></stop></linearGradient><linearGradient gradientUnits="objectBoundingBox" id="paint4_linear_1513_110780" node-id="42" spreadMethod="pad" x1="649.318" x2="605.494" y1="778.74" y2="696.911"><stop offset="0.568288" stop-color="#97cdff"></stop><stop offset="1" stop-color="#5fb2ff"></stop></linearGradient><linearGradient gradientUnits="objectBoundingBox" id="paint5_linear_1513_110780" node-id="45" spreadMethod="pad" x1="686" x2="206.755" y1="200" y2="646.727"><stop offset="0" stop-color="#6cb8ff"></stop><stop offset="0.865168" stop-color="#b1d9ff"></stop></linearGradient><linearGradient gradientUnits="objectBoundingBox" id="paint6_linear_1513_110780" node-id="48" spreadMethod="pad" x1="375.5" x2="375.5" y1="593.358" y2="615.366"><stop offset="0" stop-color="#ffcda5"></stop><stop offset="1" stop-color="#ffe8d1"></stop></linearGradient><linearGradient gradientUnits="objectBoundingBox" id="paint7_linear_1513_110780" node-id="51" spreadMethod="pad" x1="376.181" x2="376.181" y1="543.272" y2="600.131"><stop offset="0" stop-color="#fff2df"></stop><stop offset="1" stop-color="#fee0bc"></stop></linearGradient><linearGradient gradientUnits="objectBoundingBox" id="paint8_linear_1513_110780" node-id="54" spreadMethod="pad" x1="396.189" x2="358.148" y1="540.753" y2="579.657"><stop offset="0" stop-color="#777ca7"></stop><stop offset="1" stop-color="#636681"></stop></linearGradient><linearGradient gradientUnits="objectBoundingBox" id="paint9_linear_1513_110780" node-id="57" spreadMethod="pad" x1="425.773" x2="384.874" y1="591.568" y2="749.353"><stop offset="0" stop-color="#ffe194"></stop><stop offset="1" stop-color="#ffbf84"></stop></linearGradient><linearGradient gradientUnits="objectBoundingBox" id="paint10_linear_1513_110780" node-id="60" spreadMethod="pad" x1="392.552" x2="358.001" y1="640.104" y2="690.962"><stop offset="0" stop-color="#94cbff"></stop><stop offset="1" stop-color="#dceeff"></stop></linearGradient><linearGradient gradientUnits="objectBoundingBox" id="paint11_linear_1513_110780" node-id="63" spreadMethod="pad" x1="374.036" x2="374.036" y1="698.149" y2="703.644"><stop offset="0" stop-color="#94cbff"></stop><stop offset="1" stop-color="#dceeff"></stop></linearGradient><linearGradient gradientUnits="objectBoundingBox" id="paint12_linear_1513_110780" node-id="66" spreadMethod="pad" x1="811.334" x2="701.011" y1="178.533" y2="304.871"><stop offset="0" stop-color="#6cb8ff"></stop><stop offset="0.781833" stop-color="#bddfff"></stop></linearGradient><clipPath id="clip0_1513_110780" node-id="69"><path d="M 0.00 0.00 L 1024.00 0.00 L 1024.00 1024.00 L 0.00 1024.00 Z" fill="#000000" fill-rule="nonzero" node-id="153" stroke="none" target-height="1024" target-width="1024" target-x="0" target-y="0"></path></clipPath></defs><g clip-path="url(#clip0_1513_110780)" id="sillyvg_g_0" node-id="157"><path d="M 973.00 762.50 L 972.80 766.60 L 972.00 770.70 L 970.80 774.80 L 969.10 779.00 L 966.80 783.20 L 963.90 787.50 L 960.30 792.10 L 955.90 796.70 L 950.60 801.50 L 944.50 806.30 L 937.50 811.30 L 928.70 816.70 L 918.80 822.10 L 907.40 827.70 L 894.50 833.20 L 881.90 838.10 L 868.10 843.00 L 852.90 847.90 L 836.20 852.70 L 802.60 861.00 L 765.10 868.60 L 726.40 874.90 L 684.70 880.30 L 656.60 883.20 L 627.50 885.60 L 597.50 887.50 L 567.50 888.90 L 537.00 889.70 L 506.00 890.00 L 475.00 889.70 L 444.50 888.90 L 414.50 887.50 L 384.50 885.60 L 355.40 883.20 L 327.30 880.30 L 285.60 874.90 L 246.90 868.60 L 209.40 861.00 L 175.80 852.70 L 159.10 847.90 L 143.90 843.00 L 130.10 838.10 L 117.50 833.20 L 104.60 827.70 L 93.20 822.10 L 83.30 816.70 L 74.50 811.30 L 67.50 806.30 L 61.40 801.50 L 56.10 796.70 L 51.70 792.10 L 48.10 787.50 L 45.20 783.20 L 42.90 779.00 L 41.20 774.80 L 40.00 770.70 L 39.20 766.60 L 39.00 762.50 L 39.20 758.40 L 40.00 754.30 L 41.20 750.20 L 42.90 746.00 L 45.20 741.80 L 48.10 737.50 L 51.70 732.90 L 56.10 728.30 L 61.40 723.50 L 67.50 718.70 L 74.50 713.70 L 83.30 708.30 L 93.20 702.90 L 104.60 697.30 L 117.50 691.80 L 130.10 686.90 L 143.90 682.00 L 159.10 677.10 L 175.80 672.30 L 209.40 664.00 L 246.90 656.40 L 285.60 650.10 L 327.30 644.70 L 355.40 641.80 L 384.50 639.40 L 414.50 637.50 L 444.50 636.10 L 475.00 635.30 L 506.00 635.00 L 537.00 635.30 L 567.50 636.10 L 597.50 637.50 L 627.50 639.40 L 656.60 641.80 L 684.70 644.70 L 726.40 650.10 L 765.10 656.40 L 802.60 664.00 L 836.20 672.30 L 852.90 677.10 L 868.10 682.00 L 881.90 686.90 L 894.50 691.80 L 907.40 697.30 L 918.80 702.90 L 928.70 708.30 L 937.50 713.70 L 944.50 718.70 L 950.60 723.50 L 955.90 728.30 L 960.30 732.90 L 963.90 737.50 L 966.80 741.80 L 969.10 746.00 L 970.80 750.20 L 972.00 754.30 L 972.80 758.40 L 973.00 762.50 Z" fill="url(#paint0_linear_1513_110780)" fill-rule="nonzero" node-id="159" stroke="none" target-height="255" target-width="934" target-x="39" target-y="635"></path><path d="M 230.50 615.50 L 230.20 615.30 L 229.90 615.50 L 226.90 622.60 L 218.30 645.90 L 211.50 667.50 L 208.30 679.50 L 205.40 691.70 L 203.00 704.10 L 201.80 712.40 L 200.20 730.20 L 200.60 735.20 L 201.30 738.20 L 202.60 741.60 L 203.90 743.70 L 207.60 748.00 L 209.90 749.80 L 212.90 751.40 L 216.60 752.80 L 220.50 753.80 L 225.20 754.40 L 231.00 754.70 L 235.40 754.40 L 242.30 753.00 L 245.00 751.90 L 248.50 749.90 L 251.30 747.70 L 253.40 745.20 L 255.20 742.40 L 257.60 736.60 L 258.60 732.10 L 259.00 728.00 L 258.90 716.50 L 257.40 704.80 L 255.60 695.60 L 253.20 685.60 L 247.70 665.50 L 241.60 646.50 L 230.50 615.50 Z" fill="url(#paint1_linear_1513_110780)" fill-rule="nonzero" node-id="161" stroke="none" target-height="139.40002" target-width="58.800003" target-x="200.2" target-y="615.3"></path><path d="M 229.70 784.30 L 228.90 784.00 L 228.60 783.30 L 228.60 631.80 L 228.90 631.00 L 229.70 630.70 L 230.40 631.00 L 230.70 631.80 L 230.70 783.30 L 230.40 784.00 L 229.70 784.30 Z" fill="url(#paint2_linear_1513_110780)" fill-rule="nonzero" node-id="163" stroke="none" target-height="153.59998" target-width="2.0999908" target-x="228.6" target-y="630.7"></path><path d="M 869.40 810.70 L 876.50 808.00 L 879.90 806.20 L 883.30 803.80 L 886.60 801.00 L 890.80 795.80 L 891.90 792.80 L 891.70 791.30 L 890.20 789.40 L 888.00 788.50 L 886.20 788.50 L 883.50 789.00 L 879.20 790.50 L 870.90 794.80 L 870.30 794.80 L 869.30 794.30 L 868.80 793.30 L 868.80 792.70 L 870.30 790.40 L 872.70 788.30 L 882.60 781.40 L 890.70 774.50 L 894.20 770.10 L 895.40 767.60 L 896.00 765.10 L 895.60 762.50 L 893.80 760.60 L 892.50 760.00 L 890.40 759.60 L 888.20 759.80 L 883.70 761.50 L 881.60 762.90 L 878.80 765.30 L 873.10 770.90 L 869.80 773.30 L 868.00 774.00 L 866.00 774.40 L 864.00 774.00 L 863.30 773.30 L 862.80 771.30 L 863.30 769.30 L 873.00 757.80 L 876.50 752.90 L 879.40 747.70 L 881.00 744.00 L 882.20 740.20 L 883.00 736.20 L 883.20 732.20 L 882.90 728.30 L 882.00 724.40 L 880.70 721.20 L 878.60 718.40 L 877.20 717.30 L 874.00 716.10 L 872.30 716.10 L 869.40 717.10 L 866.50 719.90 L 863.60 725.20 L 862.30 728.50 L 860.40 737.40 L 858.20 756.20 L 856.90 760.60 L 855.10 763.20 L 853.70 763.30 L 852.30 761.90 L 848.10 748.80 L 846.80 746.00 L 843.90 742.10 L 840.90 740.30 L 839.20 740.10 L 837.80 740.30 L 835.40 741.60 L 834.00 743.30 L 833.00 745.30 L 832.60 747.40 L 832.70 749.60 L 833.60 753.90 L 835.10 757.60 L 837.00 761.10 L 839.20 764.50 L 844.50 770.90 L 845.60 772.70 L 846.30 774.70 L 846.30 776.10 L 845.40 778.80 L 844.50 779.90 L 843.40 780.60 L 842.10 780.70 L 840.70 780.30 L 830.70 774.80 L 826.80 773.70 L 824.90 773.80 L 823.00 774.40 L 820.70 776.20 L 819.40 779.00 L 819.00 780.80 L 819.00 782.70 L 820.00 786.10 L 824.10 793.50 L 827.40 798.30 L 830.10 801.60 L 833.10 804.50 L 838.20 808.40 L 841.60 810.20 L 845.80 811.70 L 852.20 812.90 L 860.00 812.70 L 864.40 812.00 L 869.40 810.70 Z" fill="url(#paint3_linear_1513_110780)" fill-rule="nonzero" node-id="165" stroke="none" target-height="96.80005" target-width="77" target-x="819" target-y="716.1"></path><path d="M 649.60 740.70 L 650.50 737.50 L 651.00 733.60 L 650.90 731.40 L 650.50 730.40 L 649.10 729.20 L 646.70 729.50 L 644.40 731.50 L 642.50 734.00 L 639.20 739.70 L 638.50 739.90 L 637.80 739.50 L 637.50 738.70 L 638.10 735.20 L 640.90 727.60 L 642.40 722.50 L 643.00 718.80 L 642.80 715.00 L 642.10 713.30 L 640.90 712.10 L 639.60 711.70 L 638.20 711.90 L 635.80 713.40 L 634.30 715.30 L 633.30 717.60 L 631.20 726.70 L 630.40 728.50 L 629.00 730.00 L 627.70 730.50 L 627.10 730.40 L 626.00 729.50 L 625.60 727.50 L 626.60 718.10 L 626.60 714.00 L 626.30 710.00 L 624.90 704.80 L 622.40 699.90 L 620.80 697.90 L 618.80 696.00 L 616.80 694.70 L 613.40 693.90 L 611.10 694.50 L 610.20 695.10 L 609.20 696.30 L 608.40 699.40 L 608.90 703.80 L 610.60 709.10 L 618.30 724.30 L 618.70 725.80 L 618.70 727.90 L 618.10 728.40 L 616.60 728.30 L 609.30 722.60 L 607.50 721.50 L 604.40 720.50 L 602.00 720.60 L 601.00 721.10 L 600.00 722.10 L 599.50 723.50 L 599.30 724.90 L 600.20 727.70 L 603.20 730.90 L 607.80 733.70 L 617.20 737.00 L 618.80 738.50 L 619.30 740.30 L 619.20 741.30 L 618.20 742.70 L 617.30 743.00 L 610.20 743.60 L 608.20 744.10 L 605.90 745.40 L 605.10 746.40 L 604.60 749.00 L 604.90 750.40 L 605.70 752.10 L 608.20 754.30 L 615.90 758.40 L 620.90 759.90 L 625.40 760.50 L 631.30 760.80 L 666.60 760.80 L 672.20 760.60 L 679.50 759.60 L 683.30 758.10 L 684.70 757.00 L 685.40 755.70 L 685.70 754.20 L 685.40 752.40 L 684.50 750.70 L 682.90 748.90 L 680.90 747.50 L 675.20 744.70 L 670.00 743.10 L 663.70 741.80 L 657.00 741.00 L 649.60 740.70 Z" fill="url(#paint4_linear_1513_110780)" fill-rule="evenodd" node-id="167" stroke="none" target-height="66.89996" target-width="86.400024" target-x="599.3" target-y="693.9"></path><path d="M 398.40 606.00 L 398.60 597.90 L 399.40 590.10 L 400.60 582.40 L 402.40 574.90 L 404.50 567.50 L 407.20 560.40 L 410.20 553.50 L 413.60 546.80 L 417.50 540.40 L 421.70 534.20 L 426.20 528.30 L 431.10 522.70 L 436.40 517.40 L 441.90 512.50 L 447.80 507.90 L 453.90 503.60 L 460.30 499.70 L 466.90 496.20 L 473.80 493.20 L 480.90 490.50 L 473.80 487.80 L 466.90 484.80 L 460.30 481.30 L 453.90 477.40 L 447.80 473.10 L 441.90 468.50 L 436.40 463.60 L 431.10 458.30 L 426.20 452.70 L 421.70 446.80 L 417.50 440.60 L 413.60 434.20 L 410.20 427.50 L 407.20 420.60 L 404.50 413.50 L 402.40 406.10 L 400.60 398.60 L 399.40 390.90 L 398.60 383.10 L 398.40 375.00 L 398.40 340.00 L 370.90 340.00 L 367.80 339.70 L 365.00 339.00 L 362.40 337.70 L 360.00 336.00 L 358.00 334.00 L 356.30 331.60 L 355.10 329.00 L 354.30 326.20 L 354.00 323.10 L 354.30 317.90 L 355.10 315.00 L 356.30 312.40 L 358.00 310.00 L 360.00 308.00 L 362.40 306.30 L 365.00 305.10 L 367.80 304.30 L 370.90 304.00 L 668.90 304.00 L 672.00 304.30 L 674.80 305.10 L 677.50 306.30 L 679.80 308.00 L 681.80 310.00 L 683.50 312.40 L 684.80 315.00 L 685.50 317.90 L 685.80 321.00 L 685.50 326.20 L 684.80 329.00 L 683.50 331.60 L 681.80 334.00 L 679.80 336.00 L 677.50 337.70 L 674.80 339.00 L 672.00 339.70 L 668.90 340.00 L 641.00 340.00 L 641.00 375.00 L 640.70 383.10 L 640.00 390.90 L 638.70 398.60 L 637.00 406.10 L 634.80 413.50 L 632.20 420.60 L 629.20 427.50 L 625.70 434.20 L 621.90 440.60 L 617.70 446.80 L 613.10 452.70 L 608.20 458.30 L 603.00 463.60 L 597.40 468.50 L 591.60 473.10 L 585.50 477.40 L 579.10 481.30 L 572.40 484.80 L 565.60 487.80 L 558.40 490.50 L 565.60 493.20 L 572.40 496.20 L 579.10 499.70 L 585.50 503.60 L 591.60 507.90 L 597.40 512.50 L 603.00 517.40 L 608.20 522.70 L 613.10 528.30 L 617.70 534.20 L 621.90 540.40 L 625.70 546.80 L 629.20 553.50 L 632.20 560.40 L 634.80 567.50 L 637.00 574.90 L 638.70 582.40 L 640.00 590.10 L 640.70 597.90 L 641.00 606.00 L 641.00 641.00 L 669.10 641.00 L 672.20 641.30 L 675.00 642.00 L 677.60 643.30 L 680.00 645.00 L 682.00 647.00 L 683.70 649.40 L 684.90 652.00 L 685.70 654.80 L 686.00 657.90 L 685.70 663.10 L 684.90 666.00 L 683.70 668.60 L 682.00 671.00 L 680.00 673.00 L 677.60 674.70 L 675.00 675.90 L 672.20 676.70 L 669.10 677.00 L 371.10 677.00 L 368.00 676.70 L 365.20 675.90 L 362.50 674.70 L 360.20 673.00 L 358.20 671.00 L 356.50 668.60 L 355.20 666.00 L 354.50 663.10 L 354.20 660.00 L 354.50 654.80 L 355.20 652.00 L 356.50 649.40 L 358.20 647.00 L 360.20 645.00 L 362.50 643.30 L 365.20 642.00 L 368.00 641.30 L 371.10 641.00 L 398.40 641.00 L 398.40 606.00 Z" fill="#e0effb" fill-rule="nonzero" node-id="169" stroke="none" target-height="373" target-width="332" target-x="354" target-y="304"></path><path d="M 613.00 637.00 L 612.70 641.60 L 611.90 645.40 L 610.80 648.50 L 609.20 651.10 L 607.20 653.40 L 604.80 655.30 L 602.00 656.90 L 598.70 658.10 L 594.20 659.20 L 588.90 659.90 L 582.80 660.20 L 573.30 659.90 L 526.80 656.30 L 514.00 656.00 L 501.30 656.30 L 489.70 657.10 L 459.20 659.90 L 451.20 660.20 L 446.10 659.90 L 441.80 659.20 L 438.10 658.10 L 435.60 656.90 L 433.40 655.30 L 431.50 653.40 L 429.90 651.10 L 428.70 648.50 L 427.80 645.40 L 427.20 641.60 L 427.00 637.00 L 427.80 627.90 L 430.20 618.40 L 432.70 612.30 L 435.70 606.20 L 439.40 600.10 L 443.60 594.30 L 448.40 588.70 L 453.70 583.30 L 459.50 578.40 L 465.70 573.80 L 472.30 569.60 L 482.90 564.40 L 494.40 560.40 L 500.30 558.90 L 506.30 557.90 L 512.60 557.20 L 519.00 557.00 L 525.40 557.20 L 531.70 557.90 L 537.80 558.90 L 543.80 560.40 L 555.40 564.40 L 566.20 569.60 L 573.00 573.80 L 579.40 578.40 L 585.30 583.30 L 590.80 588.70 L 595.70 594.30 L 600.00 600.10 L 603.90 606.20 L 607.10 612.30 L 609.60 618.40 L 611.10 623.20 L 612.10 627.90 L 613.00 637.00 Z" fill="#81c2fa" fill-rule="nonzero" node-id="171" stroke="none" target-height="103.20001" target-width="186" target-x="427" target-y="557"></path><path d="M 668.70 304.00 L 671.80 304.30 L 674.60 305.10 L 677.20 306.30 L 679.60 308.00 L 681.60 310.00 L 683.30 312.40 L 684.50 315.00 L 685.30 317.90 L 685.60 321.00 L 685.30 326.20 L 684.50 329.00 L 683.30 331.60 L 681.60 334.00 L 679.60 336.00 L 677.20 337.70 L 674.60 339.00 L 671.80 339.70 L 668.70 340.00 L 369.90 340.00 L 366.80 339.70 L 364.00 339.00 L 361.40 337.70 L 359.00 336.00 L 357.00 334.00 L 355.30 331.60 L 354.10 329.00 L 353.30 326.20 L 353.00 323.10 L 353.30 317.90 L 354.10 315.00 L 355.30 312.40 L 357.00 310.00 L 359.00 308.00 L 361.40 306.30 L 364.00 305.10 L 366.80 304.30 L 369.90 304.00 L 668.70 304.00 Z M 669.10 641.00 L 672.20 641.30 L 675.00 642.00 L 677.60 643.30 L 680.00 645.00 L 682.00 647.00 L 683.70 649.40 L 684.90 652.00 L 685.70 654.80 L 686.00 657.90 L 685.70 663.10 L 684.90 666.00 L 683.70 668.60 L 682.00 671.00 L 680.00 673.00 L 677.60 674.70 L 675.00 675.90 L 672.20 676.70 L 669.10 677.00 L 370.30 677.00 L 367.20 676.70 L 364.40 675.90 L 361.80 674.70 L 359.40 673.00 L 357.40 671.00 L 355.70 668.60 L 354.50 666.00 L 353.70 663.10 L 353.40 660.00 L 353.70 654.80 L 354.50 652.00 L 355.70 649.40 L 357.40 647.00 L 359.40 645.00 L 361.80 643.30 L 364.40 642.00 L 367.20 641.30 L 370.30 641.00 L 669.10 641.00 Z" fill="url(#paint5_linear_1513_110780)" fill-rule="nonzero" node-id="173" stroke="none" target-height="373" target-width="333" target-x="353" target-y="304"></path><path d="M 437.00 744.50 L 436.70 746.00 L 436.00 747.40 L 434.70 748.90 L 432.60 750.50 L 429.60 752.20 L 425.60 753.80 L 420.50 755.50 L 409.30 757.80 L 402.50 758.80 L 388.40 759.80 L 380.50 760.00 L 372.60 759.80 L 358.50 758.80 L 351.70 757.80 L 340.50 755.50 L 335.40 753.80 L 331.40 752.20 L 328.40 750.50 L 326.30 748.90 L 325.00 747.40 L 324.30 746.00 L 324.00 744.50 L 324.30 743.00 L 325.00 741.60 L 326.30 740.10 L 328.40 738.50 L 331.40 736.80 L 335.40 735.20 L 340.50 733.50 L 351.70 731.20 L 358.50 730.20 L 372.60 729.20 L 380.50 729.00 L 388.40 729.20 L 402.50 730.20 L 409.30 731.20 L 420.50 733.50 L 425.60 735.20 L 429.60 736.80 L 432.60 738.50 L 434.70 740.10 L 436.00 741.60 L 436.70 743.00 L 437.00 744.50 Z" fill="#7d7d7d" fill-opacity="0.1" fill-rule="nonzero" node-id="175" stroke="none" target-height="31" target-width="113" target-x="324" target-y="729"></path><path d="M 388.10 590.10 L 362.90 590.10 L 362.90 615.40 L 388.10 615.40 L 388.10 590.10 Z" fill="url(#paint6_linear_1513_110780)" fill-rule="nonzero" node-id="177" stroke="none" target-height="25.300049" target-width="25.200012" target-x="362.9" target-y="590.1"></path><path d="M 402.40 582.60 L 403.50 582.80 L 404.70 582.60 L 406.00 581.80 L 408.10 579.40 L 409.00 577.60 L 409.90 574.00 L 409.40 571.10 L 408.70 570.10 L 407.80 569.40 L 406.60 569.20 L 405.50 569.50 L 404.20 570.20 L 402.00 572.70 L 401.10 574.40 L 400.60 576.30 L 400.40 579.60 L 400.80 581.00 L 401.50 582.00 L 402.40 582.60 Z" fill="#fee0bc" fill-rule="nonzero" node-id="179" stroke="none" target-height="13.599976" target-width="9.5" target-x="400.4" target-y="569.2"></path><path d="M 348.20 582.60 L 347.10 582.80 L 345.90 582.60 L 344.60 581.90 L 342.40 579.50 L 341.50 577.70 L 340.60 574.10 L 341.00 571.10 L 341.70 570.10 L 342.60 569.50 L 343.70 569.30 L 344.90 569.50 L 346.20 570.20 L 348.40 572.60 L 349.30 574.40 L 349.90 576.30 L 350.10 579.50 L 349.70 580.90 L 349.10 581.90 L 348.20 582.60 Z" fill="#fee0bc" fill-rule="nonzero" node-id="181" stroke="none" target-height="13.5" target-width="9.5" target-x="340.6" target-y="569.3"></path><path d="M 376.20 600.10 L 380.10 599.90 L 383.90 599.10 L 387.40 597.90 L 390.70 596.20 L 393.80 594.20 L 396.50 591.80 L 399.00 589.10 L 401.00 586.10 L 402.70 582.80 L 404.00 579.30 L 404.70 575.60 L 405.00 571.70 L 404.70 567.80 L 404.00 564.10 L 402.70 560.60 L 401.00 557.30 L 399.00 554.30 L 396.50 551.60 L 393.80 549.20 L 390.70 547.20 L 387.40 545.50 L 383.90 544.30 L 380.10 543.50 L 376.20 543.30 L 372.20 543.50 L 368.50 544.30 L 365.00 545.50 L 361.60 547.20 L 358.60 549.20 L 355.80 551.60 L 353.40 554.30 L 351.30 557.30 L 349.60 560.60 L 348.40 564.10 L 347.70 567.80 L 347.40 571.70 L 347.70 575.60 L 348.40 579.30 L 349.60 582.80 L 351.30 586.10 L 353.40 589.10 L 355.80 591.80 L 358.60 594.20 L 361.60 596.20 L 365.00 597.90 L 368.50 599.10 L 372.20 599.90 L 376.20 600.10 Z" fill="url(#paint7_linear_1513_110780)" fill-rule="nonzero" node-id="183" stroke="none" target-height="56.799988" target-width="57.600006" target-x="347.4" target-y="543.3"></path><path d="M 404.10 573.70 L 406.90 568.60 L 407.90 565.40 L 408.80 558.80 L 408.30 551.60 L 407.50 548.10 L 406.30 544.50 L 404.60 541.20 L 402.60 538.00 L 400.00 535.00 L 397.10 532.40 L 393.70 530.20 L 389.70 528.20 L 386.60 527.20 L 379.20 525.80 L 374.90 525.60 L 370.60 525.80 L 366.70 526.40 L 360.00 528.40 L 355.90 530.40 L 352.40 532.70 L 349.50 535.40 L 346.90 538.50 L 344.80 541.70 L 343.10 545.20 L 341.90 548.80 L 341.10 552.40 L 340.80 555.90 L 340.90 559.50 L 341.40 562.90 L 342.30 566.00 L 343.60 569.00 L 345.30 571.50 L 347.40 573.70 L 349.40 570.30 L 351.00 568.70 L 356.00 565.80 L 359.30 564.50 L 367.30 562.70 L 375.80 562.10 L 380.10 562.30 L 388.30 563.40 L 392.20 564.50 L 395.60 565.80 L 400.50 568.70 L 402.10 570.30 L 404.10 573.70 Z" fill="url(#paint8_linear_1513_110780)" fill-rule="nonzero" node-id="185" stroke="none" target-height="48.100037" target-width="68" target-x="340.8" target-y="525.6"></path><path d="M 410.20 557.70 L 409.50 561.50 L 408.10 563.20 L 406.80 563.60 L 405.10 563.70 L 402.90 563.30 L 385.40 557.20 L 378.20 555.80 L 374.30 555.50 L 369.50 555.90 L 364.90 556.80 L 360.40 558.20 L 348.90 562.50 L 345.70 563.50 L 343.20 563.80 L 341.70 563.70 L 340.50 563.10 L 339.60 562.00 L 338.50 558.60 L 338.40 555.50 L 339.20 548.40 L 341.40 542.00 L 343.60 538.00 L 346.20 534.50 L 349.40 531.30 L 352.90 528.60 L 356.80 526.30 L 361.00 524.40 L 365.40 523.10 L 370.10 522.20 L 374.90 522.00 L 379.80 522.30 L 384.40 523.20 L 388.80 524.80 L 392.90 526.80 L 396.70 529.40 L 400.20 532.40 L 403.20 535.90 L 405.70 539.60 L 407.80 543.80 L 409.70 550.40 L 410.20 557.70 Z" fill="#585449" fill-rule="nonzero" node-id="187" stroke="none" target-height="41.799988" target-width="71.80002" target-x="338.4" target-y="522"></path><path d="M 408.70 562.10 L 408.50 562.80 L 407.70 563.50 L 403.10 564.60 L 387.60 565.00 L 349.70 564.90 L 342.20 564.10 L 340.60 563.50 L 339.80 562.80 L 339.50 562.10 L 339.80 561.30 L 340.60 560.30 L 342.20 559.20 L 345.20 557.70 L 349.70 556.20 L 354.60 555.00 L 360.70 553.90 L 367.00 553.20 L 374.10 553.00 L 381.20 553.20 L 387.60 553.90 L 393.60 555.00 L 398.60 556.20 L 403.00 557.70 L 406.00 559.20 L 407.70 560.30 L 408.50 561.30 L 408.70 562.10 Z" fill="#747169" fill-rule="nonzero" node-id="189" stroke="none" target-height="12" target-width="69.20001" target-x="339.5" target-y="553"></path><path d="M 386.50 606.20 L 388.20 604.40 L 391.50 606.10 L 396.00 609.50 L 401.80 612.60 L 408.00 616.40 L 420.00 625.60 L 431.00 635.80 L 440.30 645.70 L 446.80 654.20 L 448.90 657.80 L 449.70 660.00 L 450.10 663.10 L 449.90 667.90 L 448.50 671.80 L 445.90 674.90 L 444.10 676.10 L 438.90 678.00 L 415.20 685.30 L 417.80 712.20 L 419.20 722.20 L 420.60 728.20 L 420.60 729.10 L 420.10 729.90 L 418.50 730.70 L 415.50 731.50 L 410.60 732.20 L 383.50 733.70 L 367.20 734.20 L 351.50 733.90 L 344.20 733.50 L 332.90 732.00 L 329.50 731.00 L 328.00 730.20 L 326.90 728.90 L 328.40 722.20 L 329.80 712.30 L 332.40 685.40 L 320.80 682.50 L 307.30 678.30 L 304.10 676.00 L 302.40 674.10 L 300.80 671.80 L 299.40 669.10 L 298.40 665.90 L 298.00 661.20 L 298.70 657.10 L 301.60 652.30 L 304.70 648.20 L 314.10 638.00 L 325.90 626.90 L 339.00 616.40 L 345.50 611.90 L 354.10 606.90 L 362.90 602.60 L 366.80 606.50 L 369.40 608.30 L 372.30 609.60 L 374.30 610.20 L 378.80 610.30 L 383.10 608.50 L 386.50 606.20 Z M 334.70 656.90 L 335.30 649.10 L 327.10 654.90 L 334.70 656.90 Z M 413.00 658.10 L 412.50 651.20 L 420.10 656.40 L 413.00 658.10 Z" fill="url(#paint9_linear_1513_110780)" fill-rule="evenodd" node-id="191" stroke="none" target-height="131.60004" target-width="152.1" target-x="298" target-y="602.6"></path><path d="M 391.40 605.90 L 389.60 604.60 L 387.90 604.10 L 385.30 606.30 L 382.80 607.80 L 380.50 608.70 L 378.00 609.10 L 375.70 609.10 L 373.40 608.70 L 370.10 607.60 L 367.20 606.00 L 362.80 602.20 L 361.60 602.40 L 359.20 604.10 L 363.30 607.50 L 367.00 609.90 L 370.30 611.40 L 373.80 612.40 L 376.90 612.80 L 379.70 612.70 L 384.80 611.20 L 386.90 610.10 L 389.60 608.00 L 391.40 605.90 Z" fill="#fb955b" fill-rule="nonzero" node-id="193" stroke="none" target-height="10.599976" target-width="32.19998" target-x="359.2" target-y="602.2"></path><path d="M 334.30 746.80 L 331.50 734.60 L 317.40 737.50 L 319.50 748.10 L 334.30 746.80 Z" fill="#fee4c3" fill-rule="nonzero" node-id="195" stroke="none" target-height="13.5" target-width="16.899994" target-x="317.4" target-y="734.6"></path><path d="M 321.80 736.10 L 320.70 738.40 L 320.30 740.80 L 320.80 745.40 L 322.00 748.70 L 318.70 750.80 L 316.50 751.70 L 311.50 752.60 L 309.10 752.50 L 307.60 752.20 L 305.30 750.90 L 304.40 749.90 L 303.90 748.60 L 303.70 746.80 L 303.90 744.60 L 305.30 741.10 L 306.40 739.70 L 308.20 738.10 L 310.40 737.00 L 313.10 736.20 L 318.70 735.80 L 321.80 736.10 Z" fill="#7b7b7b" fill-rule="nonzero" node-id="197" stroke="none" target-height="16.799988" target-width="18.299988" target-x="303.7" target-y="735.8"></path><path d="M 415.20 746.80 L 418.00 734.60 L 432.20 737.50 L 430.00 748.10 L 415.20 746.80 Z" fill="#fee4c3" fill-rule="nonzero" node-id="199" stroke="none" target-height="13.5" target-width="17" target-x="415.2" target-y="734.6"></path><path d="M 427.80 736.10 L 428.80 738.40 L 429.30 740.80 L 428.80 745.40 L 427.60 748.70 L 430.80 750.80 L 433.00 751.70 L 438.10 752.60 L 440.40 752.50 L 442.00 752.20 L 444.30 750.90 L 445.10 749.90 L 445.70 748.60 L 445.90 746.80 L 445.70 744.60 L 444.30 741.10 L 443.20 739.70 L 441.30 738.10 L 439.10 737.00 L 436.50 736.20 L 430.90 735.80 L 427.80 736.10 Z" fill="#7b7b7b" fill-rule="nonzero" node-id="201" stroke="none" target-height="16.799988" target-width="18.299988" target-x="427.6" target-y="735.8"></path><path d="M 426.60 696.20 L 430.90 695.80 L 437.20 696.10 L 440.70 696.90 L 445.30 698.70 L 449.40 701.90 L 451.10 704.00 L 452.50 706.70 L 453.20 710.00 L 453.30 712.80 L 453.00 715.20 L 451.40 719.40 L 448.20 723.30 L 446.10 724.90 L 443.90 726.10 L 440.50 727.40 L 427.50 729.90 L 421.90 749.10 L 375.90 740.00 L 329.90 749.10 L 324.30 729.90 L 311.40 727.40 L 305.30 724.10 L 303.00 722.20 L 299.60 718.20 L 298.20 714.10 L 298.00 711.90 L 298.40 709.50 L 299.40 706.70 L 301.20 703.40 L 303.10 700.80 L 305.20 698.90 L 309.70 696.20 L 312.00 695.50 L 315.40 694.90 L 318.50 694.90 L 323.30 695.60 L 375.90 710.60 L 426.60 696.20 Z" fill="#dcdcdc" fill-rule="nonzero" node-id="203" stroke="none" target-height="54.19995" target-width="155.29999" target-x="298" target-y="694.9"></path><path d="M 330.30 638.00 L 330.60 637.30 L 331.30 637.00 L 415.70 637.00 L 416.40 637.30 L 416.70 638.00 L 416.70 698.20 L 330.30 698.20 L 330.30 638.00 Z" fill="url(#paint10_linear_1513_110780)" fill-rule="nonzero" node-id="205" stroke="none" target-height="61.200012" target-width="86.400024" target-x="330.3" target-y="637"></path><path d="M 329.00 698.10 L 419.10 698.10 L 420.50 698.70 L 421.10 700.10 L 420.90 702.40 L 419.90 703.50 L 419.10 703.60 L 329.00 703.60 L 327.60 703.10 L 327.00 701.60 L 327.10 699.40 L 328.20 698.30 L 329.00 698.10 Z" fill="url(#paint11_linear_1513_110780)" fill-rule="nonzero" node-id="207" stroke="none" target-height="5.5" target-width="94.100006" target-x="327" target-y="698.1"></path><path d="M 774.50 291.50 L 777.40 292.00 L 779.90 293.70 L 781.50 296.10 L 782.10 299.00 L 781.90 330.90 L 780.80 333.60 L 779.90 334.80 L 777.40 336.40 L 774.50 337.00 L 771.60 336.40 L 769.10 334.80 L 767.50 332.30 L 766.90 329.40 L 767.10 297.60 L 768.20 294.80 L 770.30 292.70 L 773.00 291.60 L 774.50 291.50 Z M 747.70 280.30 L 749.30 282.80 L 749.90 285.70 L 749.30 288.60 L 747.70 291.10 L 725.00 313.50 L 722.30 314.70 L 720.80 314.90 L 719.30 314.70 L 716.50 313.60 L 714.40 311.50 L 713.30 308.70 L 713.10 307.20 L 713.80 304.30 L 715.50 301.80 L 738.10 279.40 L 740.80 278.30 L 743.80 278.30 L 746.50 279.40 L 747.70 280.30 Z M 812.10 280.30 L 833.50 301.80 L 835.10 304.30 L 835.70 307.10 L 835.50 308.60 L 834.40 311.30 L 833.50 312.50 L 831.00 314.10 L 828.10 314.70 L 826.70 314.50 L 824.00 313.50 L 801.30 291.10 L 799.80 288.60 L 799.20 285.70 L 799.40 284.30 L 800.50 281.60 L 802.60 279.50 L 805.30 278.40 L 806.70 278.20 L 809.60 278.80 L 812.10 280.30 Z M 729.00 245.90 L 731.90 246.50 L 734.30 248.10 L 736.00 250.60 L 736.50 253.50 L 736.00 256.40 L 734.30 258.90 L 731.90 260.50 L 729.00 261.10 L 697.10 260.90 L 694.40 259.80 L 693.20 258.90 L 691.60 256.40 L 691.00 253.50 L 691.60 250.60 L 693.20 248.10 L 694.40 247.20 L 697.10 246.10 L 729.00 245.90 Z M 850.40 245.90 L 853.30 246.50 L 855.80 248.10 L 857.40 250.60 L 858.00 253.50 L 857.40 256.40 L 855.80 258.90 L 853.30 260.50 L 850.40 261.10 L 818.60 260.90 L 815.80 259.80 L 813.70 257.70 L 812.60 255.00 L 812.50 253.50 L 812.60 252.00 L 813.70 249.30 L 815.80 247.20 L 818.60 246.10 L 850.40 245.90 Z M 833.50 194.50 L 835.20 196.90 L 835.80 199.80 L 835.20 202.70 L 833.50 205.20 L 810.90 227.60 L 808.20 228.70 L 806.70 228.80 L 805.30 228.60 L 802.60 227.50 L 800.50 225.40 L 799.40 222.70 L 799.30 219.80 L 800.40 217.10 L 801.30 215.90 L 824.00 193.50 L 826.70 192.40 L 828.20 192.20 L 831.10 192.80 L 833.50 194.50 Z M 726.20 194.50 L 747.70 215.90 L 749.40 218.40 L 750.00 221.30 L 749.80 222.80 L 749.40 224.30 L 747.80 226.80 L 745.30 228.40 L 742.30 229.00 L 740.80 228.80 L 738.10 227.60 L 715.50 205.20 L 713.90 202.70 L 713.30 199.90 L 713.50 198.40 L 714.60 195.70 L 716.70 193.60 L 719.40 192.50 L 720.90 192.30 L 723.70 192.90 L 726.20 194.50 Z M 774.50 170.00 L 777.40 170.60 L 779.90 172.20 L 781.50 174.70 L 782.10 177.60 L 781.90 209.40 L 780.80 212.20 L 779.90 213.30 L 778.70 214.30 L 776.00 215.40 L 773.00 215.40 L 770.30 214.30 L 769.10 213.30 L 767.50 210.90 L 766.90 208.00 L 767.10 176.10 L 768.20 173.40 L 769.10 172.20 L 771.60 170.60 L 774.50 170.00 Z" fill="url(#paint12_linear_1513_110780)" fill-rule="nonzero" node-id="209" stroke="none" target-height="167" target-width="167" target-x="691" target-y="170"></path></g></svg>